<svg width="32" height="32" viewBox="0 0 32 32" fill="none" xmlns="http://www.w3.org/2000/svg">
  <defs>
    <linearGradient id="gradient" x1="0%" y1="0%" x2="100%" y2="100%" gradientUnits="objectBoundingBox">
      <stop offset="0%" stop-color="#9333ea"/>
      <stop offset="100%" stop-color="#3b82f6"/>
    </linearGradient>
  </defs>
  <circle cx="16" cy="16" r="16" fill="url(#gradient)"/>
  <g transform="translate(8, 8) scale(0.67)">
    <path d="M11.644 1.59a.75.75 0 01.712 0l9.75 5.25a.75.75 0 010 1.32l-9.75 5.25a.75.75 0 01-.712 0l-9.75-5.25a.75.75 0 010-1.32l9.75-5.25z" fill="white" />
    <path d="M3.265 10.602l7.668 4.129a2.25 2.25 0 002.134 0l7.668-4.13 1.37.739a.75.75 0 010 1.32l-9.75 5.25a.75.75 0 01-.71 0l-9.75-5.25a.75.75 0 010-1.32l1.37-.738z" fill="white" />
    <path d="M10.933 19.231l-7.668-4.13-1.37.739a.75.75 0 000 1.32l9.75 5.25c.221.12.489.12.71 0l9.75-5.25a.75.75 0 000-1.32l-1.37-.738-7.668 4.13a2.25 2.25 0 01-2.134-.001z" fill="white" />
  </g>
</svg>
